<?xml version="1.0" standalone="no"?>
<!DOCTYPE svg PUBLIC "-//W3C//DTD SVG 20010904//EN"
 "http://www.w3.org/TR/2001/REC-SVG-20010904/DTD/svg10.dtd">
<svg version="1.0" xmlns="http://www.w3.org/2000/svg"
 width="1280.000000pt" height="800.000000pt" viewBox="0 0 1280.000000 800.000000"
 preserveAspectRatio="xMidYMid meet">

<g transform="translate(0.000000,800.000000) scale(0.100000,-0.100000)"
fill="#000000" stroke="none">
<path d="M2262 4587 c-28 -30 -29 -80 -2 -107 26 -26 81 -26 104 -1 20 22 1
22 425 -14 245 -22 275 -26 293 -44 45 -49 120 -27 126 37 6 60 -74 97 -119
56 -17 -15 -43 -15 -351 11 l-333 28 -30 29 c-39 35 -83 37 -113 5z"/>
<path d="M10082 4198 c-19 -19 -14 -46 9 -53 30 -10 58 19 43 43 -14 22 -36
26 -52 10z"/>
<path d="M9652 4038 c-7 -7 -12 -23 -12 -36 0 -20 4 -23 32 -20 38 4 51 34 22
55 -22 16 -27 16 -42 1z"/>
<path d="M4178 3938 c41 -20 62 -36 62 -47 0 -45 72 -67 103 -33 52 57 -25
134 -88 88 -16 -12 -26 -11 -74 5 -75 26 -77 22 -3 -13z"/>
<path d="M5046 3908 c-21 -30 -20 -44 4 -68 38 -38 100 -16 100 34 0 52 -75
76 -104 34z"/>
<path d="M2338 3868 c-24 -20 -28 -44 -12 -67 16 -23 53 -28 71 -10 8 8 21 8
45 1 18 -5 114 -27 212 -48 128 -27 185 -44 197 -58 20 -21 67 -25 79 -6 6 10
28 9 104 -5 53 -10 99 -15 102 -12 3 2 -12 8 -32 11 -65 13 -164 47 -164 57 0
18 -46 32 -67 21 -19 -10 -197 23 -338 63 -27 8 -65 17 -83 20 -18 3 -41 14
-52 25 -23 23 -40 25 -62 8z"/>
<path d="M3534 3795 c-4 -8 -18 -15 -33 -15 -14 0 -33 -5 -41 -10 -11 -7 -5
-10 23 -10 23 0 44 -7 56 -19 13 -13 27 -18 43 -13 40 10 48 24 32 55 -11 20
-22 27 -45 27 -17 0 -32 -6 -35 -15z"/>
<path d="M9357 3713 c-4 -3 -7 -13 -7 -22 0 -8 -24 -40 -52 -70 l-53 -55 54
48 c36 31 61 46 73 43 21 -6 43 26 34 49 -6 14 -37 19 -49 7z"/>
<path d="M3158 3653 c6 -2 18 -2 25 0 6 3 1 5 -13 5 -14 0 -19 -2 -12 -5z"/>
<path d="M1436 3604 c-35 -34 -6 -101 38 -88 47 14 60 63 24 88 -28 20 -43 20
-62 0z"/>
<path d="M3475 3612 c-28 -20 -36 -41 -25 -61 17 -33 49 -45 68 -27 24 21 166
25 209 6 27 -12 34 -12 49 1 9 8 25 13 35 11 13 -2 9 6 -15 32 -31 35 -86 51
-86 26 0 -17 -165 -13 -180 5 -13 16 -39 19 -55 7z"/>
<path d="M4377 3602 c-15 -17 -15 -20 -1 -41 12 -16 23 -22 41 -18 14 2 48 -4
76 -14 66 -24 72 -17 10 14 -26 14 -52 36 -58 49 -13 29 -46 34 -68 10z"/>
<path d="M1065 3524 c-49 -53 -23 -124 45 -124 73 0 106 75 55 125 -32 33 -70
32 -100 -1z"/>
<path d="M3655 3520 c-8 -13 15 -13 35 0 12 8 11 10 -7 10 -12 0 -25 -4 -28
-10z"/>
<path d="M5553 3498 c-21 -28 -22 -49 -3 -68 25 -25 42 -25 71 -1 23 19 23 21
9 48 -17 31 -60 43 -77 21z"/>
<path d="M2503 3478 c-4 -7 -14 -26 -23 -43 -10 -19 -45 -47 -101 -80 -48 -27
-93 -55 -100 -61 -11 -9 -216 -131 -372 -221 -5 -3 -7 6 -5 19 4 34 -18 58
-53 58 -29 0 -49 -23 -49 -57 0 -19 -64 -89 -213 -233 -69 -66 -95 -85 -119
-86 -17 -1 -34 -8 -39 -15 -13 -21 -11 -55 4 -68 11 -8 12 -24 4 -73 -6 -35
-13 -65 -16 -68 -3 -3 -6 -32 -7 -65 0 -33 -6 -92 -13 -131 -11 -63 -15 -72
-36 -77 -16 -3 -26 1 -29 12 -3 11 -4 10 -4 -4 1 -11 -4 -33 -11 -49 -9 -24
-9 -31 1 -37 53 -31 53 -9 3 -323 -25 -159 -46 -290 -48 -290 -27 -8 -42 -28
-42 -55 0 -19 -9 -40 -25 -56 -14 -14 -45 -49 -70 -79 -40 -47 -48 -53 -75
-48 -16 3 -33 10 -37 16 -5 7 -8 7 -8 1 -1 -13 -23 25 -26 44 -3 19 -12 26
-71 58 l-51 28 22 26 c13 15 29 29 37 32 11 4 11 6 -1 6 -9 1 -22 17 -29 37
-9 25 -23 40 -42 48 -18 6 -27 16 -24 24 10 25 -14 53 -43 50 -22 -2 -28 -9
-30 -35 -2 -21 1 -33 9 -33 7 0 3 -10 -9 -23 -48 -51 -7 -137 64 -137 19 0 34
-4 34 -10 0 -5 22 -21 49 -35 28 -13 61 -40 76 -59 21 -28 24 -38 15 -60 -8
-21 -7 -28 5 -32 21 -9 19 -22 -11 -61 -15 -20 -34 -33 -48 -33 -42 0 -64 -53
-31 -80 16 -13 77 -21 69 -9 -2 4 0 10 6 14 5 3 10 19 10 34 0 19 11 39 36 62
20 19 44 47 54 62 41 64 166 196 186 197 45 0 69 57 39 90 -14 16 -12 45 25
306 39 267 43 289 66 306 24 20 31 52 15 77 -9 15 71 170 95 184 8 5 12 12 9
17 -3 6 6 30 20 55 15 25 25 45 22 45 -5 0 -60 -87 -92 -145 -44 -79 -60 -105
-66 -105 -3 0 3 44 13 98 20 100 22 110 33 197 5 37 14 57 36 77 16 15 29 37
29 50 0 17 37 60 129 151 71 70 133 127 138 127 6 0 18 -9 28 -20 36 -40 105
-13 105 42 0 12 88 70 283 187 265 159 283 169 304 155 33 -21 52 -17 83 16
l29 31 418 -3 418 -3 23 -22 c26 -27 40 -28 70 -7 41 29 14 94 -40 94 -9 0
-23 -9 -31 -21 -15 -20 -19 -21 -439 -17 -422 3 -424 3 -452 26 -32 24 -70 29
-83 10z"/>
<path d="M9107 3460 c-16 -16 -22 -27 -14 -24 9 3 25 0 37 -6 27 -14 52 4 48
34 -5 32 -39 31 -71 -4z"/>
<path d="M10392 3478 c-28 -28 -1 -75 38 -63 14 4 20 15 20 35 0 36 -33 53
-58 28z"/>
<path d="M1389 3464 c-11 -14 -10 -15 11 -12 13 1 25 9 28 16 5 17 -23 15 -39
-4z"/>
<path d="M1460 3460 c0 -5 5 -10 10 -10 6 0 10 5 10 10 0 6 -4 10 -10 10 -5 0
-10 -4 -10 -10z"/>
<path d="M1540 3460 c0 -5 9 -10 21 -10 11 0 17 5 14 10 -3 6 -13 10 -21 10
-8 0 -14 -4 -14 -10z"/>
<path d="M2085 3440 c-3 -5 -2 -10 4 -10 5 0 13 5 16 10 3 6 2 10 -4 10 -5 0
-13 -4 -16 -10z"/>
<path d="M9443 3434 c-3 -8 2 -23 11 -32 15 -15 17 -15 32 0 21 21 11 48 -16
48 -11 0 -23 -7 -27 -16z"/>
<path d="M9267 3414 c-4 -4 -7 -16 -7 -26 0 -10 -12 -30 -26 -43 l-26 -24 20
-26 20 -25 7 38 c4 20 16 45 26 55 11 11 19 26 17 35 -3 17 -21 26 -31 16z"/>
<path d="M4179 3391 c11 -7 11 -9 0 -14 -8 -2 3 -8 23 -12 21 -4 51 -20 68
-36 35 -34 41 -35 70 -11 47 38 -5 102 -59 72 -15 -8 -32 -8 -59 0 -45 12 -62
13 -43 1z"/>
<path d="M8524 3359 c-3 -6 0 -17 7 -25 18 -17 44 -2 36 20 -7 18 -33 21 -43
5z"/>
<path d="M1324 3349 c-10 -17 13 -36 27 -22 12 12 4 33 -11 33 -5 0 -12 -5
-16 -11z"/>
<path d="M4690 3334 c-25 -7 -36 -13 -24 -13 11 -1 31 -12 44 -26 24 -26 49
-32 66 -16 13 13 306 -69 321 -90 9 -12 26 -17 60 -16 29 0 67 -8 95 -21 26
-12 55 -22 65 -22 38 0 209 -63 225 -83 12 -16 29 -21 65 -23 28 -1 90 -18
153 -42 156 -60 183 -72 205 -91 25 -23 59 -36 49 -19 -5 8 -2 9 10 5 10 -4
20 -7 22 -7 2 0 4 -5 4 -11 0 -5 -4 -8 -9 -4 -5 3 -3 -9 6 -26 14 -28 18 -30
52 -25 45 8 154 -24 186 -54 42 -40 100 -7 60 34 -10 10 -25 14 -39 10 -29 -7
-208 65 -199 79 4 6 0 8 -10 4 -27 -10 -47 3 -62 40 -14 33 -17 35 -48 29 -23
-4 -52 1 -97 20 -36 14 -102 38 -148 54 -53 18 -94 39 -115 60 -27 26 -37 30
-65 25 -41 -8 -219 56 -240 87 -12 16 -21 19 -48 13 -26 -4 -50 1 -93 21 -33
14 -65 23 -71 19 -19 -12 -70 15 -70 38 0 39 -56 61 -81 31 -19 -23 -158 -9
-177 17 -15 21 -28 22 -92 3z m1451 -512 c-7 -2 -18 1 -23 6 -8 8 -4 9 13 5
13 -4 18 -8 10 -11z"/>
<path d="M8654 3335 c-9 -23 3 -45 24 -45 25 0 46 25 38 45 -7 19 -55 20 -62
0z"/>
<path d="M9034 3306 c-3 -9 -1 -22 5 -29 19 -23 40 -134 28 -146 -8 -8 -8 -11
1 -11 6 0 9 -6 6 -13 -2 -7 4 -22 16 -32 12 -11 20 -13 20 -6 0 18 56 -17 102
-63 21 -21 41 -36 44 -33 10 10 62 -21 74 -43 6 -11 17 -20 25 -20 19 0 19 34
0 50 -10 9 -15 9 -15 1 0 -36 -86 43 -93 86 l-4 28 -2 -27 c-1 -36 -11 -35
-70 4 -64 42 -89 103 -95 231 -2 35 -31 51 -42 23z"/>
<path d="M8876 3301 c-9 -13 4 -41 19 -41 6 0 20 8 29 19 16 17 16 19 -6 25
-31 8 -36 8 -42 -3z"/>
<path d="M8600 3290 c0 -5 7 -10 16 -10 8 0 12 5 9 10 -3 6 -10 10 -16 10 -5
0 -9 -4 -9 -10z"/>
<path d="M1460 3266 c0 -8 5 -18 10 -21 6 -3 10 1 10 9 0 8 -4 18 -10 21 -5 3
-10 -1 -10 -9z"/>
<path d="M1272 3249 c1 -13 8 -23 13 -21 15 3 12 35 -3 40 -9 3 -13 -3 -10
-19z"/>
<path d="M8550 3259 c0 -5 5 -7 10 -4 6 3 10 8 10 11 0 2 -4 4 -10 4 -5 0 -10
-5 -10 -11z"/>
<path d="M9404 3256 c-3 -8 1 -25 10 -38 l16 -22 2 22 c0 12 1 27 2 34 2 18
-23 22 -30 4z"/>
<path d="M8211 3232 c-12 -22 -6 -32 21 -32 14 0 19 6 16 22 -4 29 -24 34 -37
10z"/>
<path d="M9333 3234 c-3 -8 -1 -20 5 -26 16 -16 42 -2 42 22 0 24 -38 28 -47
4z"/>
<path d="M9262 3215 c0 -16 2 -22 5 -12 2 9 2 23 0 30 -3 6 -5 -1 -5 -18z"/>
<path d="M6368 3179 c-34 -19 -16 -79 23 -79 19 0 49 25 49 41 0 11 -37 49
-47 49 -5 0 -16 -5 -25 -11z"/>
<path d="M5516 3164 c-10 -27 12 -42 59 -42 25 0 61 -6 80 -12 20 -7 38 -10
41 -8 2 3 -21 12 -51 22 -31 10 -59 25 -65 36 -13 24 -55 26 -64 4z"/>
<path d="M8282 3168 c-19 -19 -14 -46 8 -53 23 -7 50 10 50 31 0 8 8 14 17 14
25 0 12 7 -27 14 -23 4 -40 2 -48 -6z"/>
<path d="M9130 3160 c0 -5 5 -10 11 -10 5 0 7 5 4 10 -3 6 -8 10 -11 10 -2 0
-4 -4 -4 -10z"/>
<path d="M9856 3154 c-9 -8 -16 -19 -16 -24 0 -14 30 -40 46 -40 8 0 20 12 26
26 11 22 10 28 -7 40 -24 18 -30 18 -49 -2z"/>
<path d="M775 3115 c-30 -30 -31 -54 -4 -89 25 -32 70 -35 100 -5 17 17 20 29
15 58 -10 63 -67 81 -111 36z"/>
<path d="M8694 3125 c-8 -19 3 -35 26 -35 19 0 30 17 23 38 -6 17 -42 15 -49
-3z"/>
<path d="M1152 3108 c-18 -18 -15 -66 6 -77 49 -26 98 20 72 68 -12 24 -58 29
-78 9z"/>
<path d="M7963 3101 c-11 -17 -9 -21 9 -27 22 -7 53 20 42 37 -9 16 -39 9 -51
-10z"/>
<path d="M1738 3093 c6 -2 18 -2 25 0 6 3 1 5 -13 5 -14 0 -19 -2 -12 -5z"/>
<path d="M5720 3092 c25 -15 70 -23 70 -12 0 5 -8 10 -17 10 -10 0 -29 3 -43
6 -18 4 -21 3 -10 -4z"/>
<path d="M1395 3080 c3 -5 11 -10 16 -10 6 0 7 5 4 10 -3 6 -11 10 -16 10 -6
0 -7 -4 -4 -10z"/>
<path d="M1460 3079 c0 -5 5 -7 10 -4 6 3 10 8 10 11 0 2 -4 4 -10 4 -5 0 -10
-5 -10 -11z"/>
<path d="M7507 3076 c-9 -22 14 -34 56 -28 l38 4 -31 19 c-37 23 -56 24 -63 5z"/>
<path d="M8821 3071 c-17 -11 -7 -41 13 -41 22 0 30 20 15 36 -9 8 -19 10 -28
5z"/>
<path d="M9480 3025 c-1 -33 -2 -73 -3 -90 -2 -25 2 -30 21 -29 22 1 23 -3 21
-58 -1 -34 3 -64 9 -70 7 -7 12 -22 12 -34 0 -13 5 -26 10 -29 7 -4 9 2 6 17
-16 76 -28 193 -23 223 6 39 -6 53 -30 33 -15 -12 -16 -9 -11 22 3 19 2 44 -2
55 -5 13 -8 0 -10 -40z"/>
<path d="M9563 3064 c-3 -8 2 -23 11 -32 15 -15 16 -14 16 16 0 33 -16 43 -27
16z"/>
<path d="M5889 3058 c-15 -10 -15 -13 0 -30 8 -10 26 -18 40 -18 30 0 141 -40
141 -51 0 -5 6 -6 14 -3 8 3 21 -4 29 -16 13 -18 19 -20 36 -11 38 21 19 61
-29 61 -38 0 -152 40 -176 61 -23 21 -32 23 -55 7z"/>
<path d="M7082 3058 c-7 -7 -12 -18 -12 -25 0 -6 -25 -38 -56 -69 -31 -32 -53
-63 -50 -70 10 -25 35 -14 52 22 9 19 39 54 65 77 27 23 49 45 49 49 0 16 -37
27 -48 16z"/>
<path d="M8574 3055 c-13 -32 23 -48 47 -19 10 13 10 17 -2 25 -21 13 -39 11
-45 -6z"/>
<path d="M9431 3054 c0 -11 3 -14 6 -6 3 7 2 16 -1 19 -3 4 -6 -2 -5 -13z"/>
<path d="M1433 3036 c15 -12 27 -29 27 -38 0 -9 4 -19 9 -22 5 -4 9 14 9 38
-1 44 -1 44 -37 44 l-36 0 28 -22z"/>
<path d="M7824 3045 c-8 -21 4 -35 31 -35 27 0 42 -27 17 -32 -9 -2 4 -8 31
-12 29 -4 47 -12 47 -21 0 -17 29 -28 44 -16 6 5 27 14 46 20 34 11 34 11 3 6
-20 -3 -36 1 -44 11 -7 8 -20 12 -30 9 -20 -7 -24 2 -10 24 5 7 14 10 20 7 6
-4 11 -1 11 8 0 9 -6 13 -14 10 -8 -3 -24 -1 -35 6 -15 7 -27 8 -41 0 -15 -8
-21 -6 -30 10 -12 23 -38 26 -46 5z"/>
<path d="M8984 3006 c-7 -19 3 -36 22 -36 10 0 14 8 12 22 -4 26 -26 36 -34
14z"/>
<path d="M8190 2974 l-35 -12 35 -15 c30 -12 37 -12 50 -1 13 12 13 16 0 27
-12 11 -22 11 -50 1z"/>
<path d="M9624 2948 c3 -13 6 -30 7 -38 0 -8 7 -1 14 15 15 33 12 45 -12 45
-11 0 -14 -6 -9 -22z"/>
<path d="M7234 2915 c-9 -34 8 -50 50 -47 29 2 38 -4 70 -43 21 -26 46 -45 57
-45 26 0 69 -29 69 -46 0 -28 23 -62 37 -57 9 3 27 6 42 7 41 2 41 40 0 55
-18 6 -40 11 -49 11 -10 0 -37 19 -61 43 -24 23 -51 42 -60 43 -27 2 -88 54
-91 77 -2 15 -11 23 -30 25 -22 3 -29 -2 -34 -23z"/>
<path d="M9434 2907 c-3 -9 4 -25 16 -37 l21 -21 -3 32 c-3 35 -24 51 -34 26z"/>
<path d="M6465 2900 c-3 -5 -13 -6 -23 -3 -9 4 -4 -5 12 -20 33 -31 39 -32 56
-12 10 12 10 18 0 30 -14 17 -36 20 -45 5z"/>
<path d="M7071 2874 c0 -11 3 -14 6 -6 3 7 2 16 -1 19 -3 4 -6 -2 -5 -13z"/>
<path d="M7816 2874 c-8 -21 1 -34 24 -34 26 0 46 36 24 44 -26 10 -42 7 -48
-10z"/>
<path d="M6892 2868 c-27 -27 -2 -73 35 -66 10 2 23 14 30 27 10 21 9 27 -5
38 -22 16 -45 16 -60 1z"/>
<path d="M7108 2873 c12 -2 30 -2 40 0 9 3 -1 5 -23 4 -22 0 -30 -2 -17 -4z"/>
<path d="M8287 2872 c-17 -7 -17 -9 2 -26 24 -21 54 -14 49 11 -4 20 -24 25
-51 15z"/>
<path d="M7005 2860 c3 -5 11 -10 16 -10 6 0 7 5 4 10 -3 6 -11 10 -16 10 -6
0 -7 -4 -4 -10z"/>
<path d="M1062 2846 c1 -10 8 -17 13 -17 15 1 12 24 -3 29 -9 3 -13 -2 -10
-12z"/>
<path d="M7688 2843 c7 -3 16 -2 19 1 4 3 -2 6 -13 5 -11 0 -14 -3 -6 -6z"/>
<path d="M7035 2799 c-5 -14 -2 -25 6 -30 19 -12 22 -11 43 4 17 13 17 14 1
30 -22 23 -42 21 -50 -4z"/>
<path d="M9480 2800 c0 -8 5 -22 10 -30 9 -13 10 -13 10 0 0 8 -5 22 -10 30
-9 13 -10 13 -10 0z"/>
<path d="M7133 2793 c9 -2 23 -2 30 0 6 3 -1 5 -18 5 -16 0 -22 -2 -12 -5z"/>
<path d="M7618 2793 c7 -3 16 -2 19 1 4 3 -2 6 -13 5 -11 0 -14 -3 -6 -6z"/>
<path d="M8004 2775 c-8 -19 3 -35 26 -35 19 0 34 25 24 41 -8 14 -44 10 -50
-6z"/>
<path d="M1016 2771 c-4 -6 -3 -19 3 -28 9 -17 10 -17 17 0 8 21 -10 45 -20
28z"/>
<path d="M6418 2773 c7 -3 16 -2 19 1 4 3 -2 6 -13 5 -11 0 -14 -3 -6 -6z"/>
<path d="M9638 2735 c-5 -40 8 -63 26 -45 6 6 5 18 -1 32 -7 13 -13 30 -16 38
-2 8 -6 -3 -9 -25z"/>
<path d="M1650 2743 c0 -5 7 -18 15 -29 15 -18 15 -18 13 5 -3 23 -28 44 -28
24z"/>
<path d="M6521 2708 c7 -13 6 -18 -2 -18 -20 0 -4 -10 30 -20 19 -5 29 -5 26
1 -4 5 1 9 9 9 9 0 16 4 16 8 0 18 -36 40 -62 39 -21 -2 -24 -5 -17 -19z"/>
<path d="M9586 2656 c4 -33 1 -56 -5 -61 -16 -9 -13 -84 3 -100 12 -12 15 -11
21 12 4 16 2 29 -6 33 -9 6 -9 20 1 59 6 28 16 54 21 57 17 10 9 31 -15 42
l-25 11 5 -53z"/>
<path d="M6864 2685 c-4 -9 -2 -21 4 -27 16 -16 47 -5 47 17 0 26 -42 34 -51
10z"/>
<path d="M1258 2673 c7 -3 16 -2 19 1 4 3 -2 6 -13 5 -11 0 -14 -3 -6 -6z"/>
<path d="M9224 2665 c-7 -18 3 -35 21 -35 18 0 26 25 12 39 -15 15 -27 14 -33
-4z"/>
<path d="M9530 2658 c0 -3 9 -6 20 -5 11 1 20 5 20 9 0 3 -9 6 -20 5 -11 -1
-20 -5 -20 -9z"/>
<path d="M940 2647 c-48 -24 -33 -91 19 -85 37 4 52 51 26 78 -17 17 -23 18
-45 7z"/>
<path d="M6610 2648 c14 -5 34 -20 45 -34 21 -27 49 -25 59 3 11 27 -12 40
-71 40 -46 0 -53 -2 -33 -9z"/>
<path d="M9417 2646 c-7 -17 18 -40 33 -31 15 9 12 32 -6 39 -21 8 -21 8 -27
-8z"/>
<path d="M1095 2640 c3 -5 8 -10 11 -10 2 0 4 5 4 10 0 6 -5 10 -11 10 -5 0
-7 -4 -4 -10z"/>
<path d="M7372 2637 c-10 -11 -9 -17 2 -26 21 -18 51 -9 51 14 0 24 -36 32
-53 12z"/>
<path d="M9328 2643 c7 -3 16 -2 19 1 4 3 -2 6 -13 5 -11 0 -14 -3 -6 -6z"/>
<path d="M10174 2585 c-8 -32 6 -48 37 -43 19 2 24 9 24 33 0 25 -4 31 -27 33
-22 3 -29 -2 -34 -23z"/>
<path d="M6893 2575 c14 -6 34 -19 46 -29 26 -23 54 -14 49 16 -3 21 -8 23
-61 23 -49 0 -54 -2 -34 -10z"/>
<path d="M9282 2562 c-7 -5 -14 -22 -15 -38 -2 -25 2 -29 23 -29 22 0 25 4 25
34 0 36 -11 46 -33 33z"/>
<path d="M9073 2463 c-15 -6 -17 -49 -3 -58 20 -12 50 6 50 30 0 18 -21 40
-33 34 -1 0 -8 -3 -14 -6z"/>
<path d="M9560 2458 c0 -6 -7 -19 -16 -29 -17 -19 -12 -39 10 -39 9 0 13 14
13 40 0 22 -1 40 -3 40 -2 0 -4 -5 -4 -12z"/>
<path d="M9600 2458 c0 -9 -3 -23 -6 -32 -4 -11 0 -16 12 -16 10 0 32 -12 48
-27 l31 -28 -27 31 c-16 16 -28 34 -28 40 0 5 -7 18 -15 28 -12 16 -15 17 -15
4z"/>
<path d="M9845 2460 c-4 -7 -3 -16 3 -22 14 -14 45 -2 40 15 -6 16 -34 21 -43
7z"/>
<path d="M9671 2431 c-8 -6 -9 -11 -3 -15 6 -3 14 -1 17 5 9 14 2 20 -14 10z"/>
<path d="M10577 2404 c-15 -16 -7 -53 14 -59 30 -10 58 19 43 43 -12 18 -45
28 -57 16z"/>
<path d="M9706 2367 c3 -10 9 -15 12 -12 3 3 0 11 -7 18 -10 9 -11 8 -5 -6z"/>
<path d="M9710 2326 c0 -8 12 -28 27 -43 14 -15 23 -22 18 -14 -6 10 -4 12 4
7 7 -5 10 -14 7 -21 -2 -7 6 -34 20 -61 13 -26 24 -53 24 -61 0 -17 31 -53 46
-53 20 0 63 -40 66 -62 2 -15 13 -24 36 -30 18 -5 32 -15 32 -23 0 -8 9 -15
19 -15 14 0 18 5 14 20 -3 11 0 20 6 20 6 0 11 5 11 10 0 7 -6 7 -17 1 -33
-17 -38 -15 -43 15 -4 23 -10 29 -31 29 -44 1 -86 45 -134 140 -21 41 -23 50
-11 57 20 11 9 38 -15 38 -10 0 -19 6 -19 14 0 14 -36 46 -52 46 -5 0 -8 -7
-8 -14z"/>
<path d="M8737 2303 c-13 -12 -7 -41 9 -47 22 -8 22 -8 35 15 9 17 8 23 -2 30
-17 10 -33 11 -42 2z"/>
<path d="M9945 2231 c-3 -5 -1 -12 5 -16 5 -3 10 1 10 9 0 18 -6 21 -15 7z"/>
<path d="M10010 2208 c0 -7 4 -19 9 -27 7 -11 11 -10 20 6 5 11 7 23 4 27 -11
11 -33 7 -33 -6z"/>
<path d="M10275 2200 c-3 -5 -1 -10 4 -10 6 0 11 5 11 10 0 6 -2 10 -4 10 -3
0 -8 -4 -11 -10z"/>
<path d="M8790 2155 c-19 -23 6 -68 30 -55 24 13 33 40 19 56 -15 18 -34 18
-49 -1z"/>
<path d="M1070 2140 c0 -5 5 -10 10 -10 6 0 10 5 10 10 0 6 -4 10 -10 10 -5 0
-10 -4 -10 -10z"/>
<path d="M9977 2137 c-3 -7 1 -26 8 -42 11 -24 14 -26 14 -9 1 11 6 25 12 31
8 8 6 14 -9 22 -15 8 -21 7 -25 -2z"/>
<path d="M9564 2125 c-9 -21 2 -44 25 -53 25 -9 98 -98 116 -139 16 -37 48
-44 64 -15 12 22 -4 52 -27 52 -19 0 -112 110 -112 132 0 34 -55 53 -66 23z"/>
<path d="M10065 2090 c-11 -17 5 -30 36 -30 l29 0 -20 20 c-22 22 -36 25 -45
10z"/>
<path d="M10285 2070 c-17 -19 -17 -21 0 -40 10 -11 22 -20 26 -20 10 0 39 29
39 40 0 11 -29 40 -39 40 -4 0 -16 -9 -26 -20z"/>
<path d="M10178 2028 c5 -5 16 -8 23 -6 8 3 3 7 -10 11 -17 4 -21 3 -13 -5z"/>
<path d="M8408 2011 c-15 -18 -15 -20 9 -26 29 -7 60 15 49 34 -11 17 -40 13
-58 -8z"/>
<path d="M10287 1970 c-4 -15 0 -20 13 -20 10 0 31 -15 45 -32 15 -18 24 -26
20 -18 -5 8 -16 24 -26 35 -17 19 -19 24 -19 45 0 19 -28 10 -33 -10z"/>
<path d="M8075 1949 c-5 -14 -2 -25 6 -30 19 -12 25 -11 39 6 10 12 10 18 0
30 -18 21 -38 19 -45 -6z"/>
<path d="M8190 1932 l-25 -28 45 0 c41 1 45 3 45 26 0 36 -34 37 -65 2z"/>
<path d="M4327 1922 c-10 -10 -17 -24 -17 -30 0 -6 -8 -16 -17 -21 -16 -9 -16
-10 -2 -11 9 0 22 -7 29 -15 9 -11 27 -15 56 -14 37 2 43 6 47 28 12 64 -56
108 -96 63z"/>
<path d="M60 1910 c-24 -24 -26 -63 -5 -80 19 -16 19 -56 0 -110 -8 -23 -13
-45 -11 -49 3 -4 0 -26 -5 -50 -7 -31 -6 -47 2 -57 19 -23 26 -16 34 32 3 26
10 56 15 68 5 11 12 46 15 76 5 48 10 57 35 72 24 14 30 24 30 51 0 61 -67 90
-110 47z"/>
<path d="M8824 1906 c-7 -31 1 -46 26 -46 25 0 33 15 26 46 -4 15 -14 24 -26
24 -12 0 -22 -9 -26 -24z"/>
<path d="M5282 1884 c-29 -20 -29 -59 2 -79 37 -24 86 2 86 46 0 14 -38 49
-53 49 -7 0 -23 -7 -35 -16z"/>
<path d="M7227 1889 c-20 -12 -22 -32 -3 -48 18 -15 46 -4 46 19 0 26 -22 40
-43 29z"/>
<path d="M10490 1876 c0 -9 5 -16 10 -16 6 0 10 4 10 9 0 6 -4 13 -10 16 -5 3
-10 -1 -10 -9z"/>
<path d="M10036 1854 c-10 -26 -7 -34 14 -34 23 0 25 8 6 33 -12 16 -14 16
-20 1z"/>
<path d="M5724 1850 c-27 -10 -37 -36 -24 -60 16 -30 49 -35 72 -12 35 35 -1
89 -48 72z"/>
<path d="M7889 1843 c-10 -11 -9 -18 5 -31 16 -16 18 -16 34 4 10 11 25 25 34
30 13 7 8 10 -22 10 -23 1 -45 -4 -51 -13z"/>
<path d="M10330 1825 c0 -8 8 -15 18 -15 23 0 55 -33 45 -45 -5 -4 -2 -5 5 -1
7 4 20 2 28 -5 8 -6 17 -9 20 -6 3 3 -4 11 -17 17 -12 7 -35 25 -50 41 -31 32
-49 37 -49 14z"/>
<path d="M3441 1794 c-26 -33 -27 -58 -1 -84 21 -21 65 -26 89 -11 16 10 84
-26 76 -40 -3 -4 7 -11 22 -15 36 -9 52 -17 289 -158 l202 -119 -5 -37 c-4
-31 -1 -40 22 -58 35 -28 55 -28 89 -1 22 17 26 27 21 48 -11 44 -34 62 -79
60 -36 -2 -62 12 -229 116 -180 113 -187 119 -173 139 12 19 26 21 185 28 95
3 174 8 177 10 2 3 -72 4 -164 4 -144 -1 -172 2 -195 17 -35 23 -73 22 -90 -4
-14 -19 -17 -20 -43 -5 -46 25 -74 53 -74 73 0 27 -41 63 -72 63 -17 0 -34
-10 -47 -26z"/>
<path d="M9984 1809 c-10 -17 13 -36 27 -22 12 12 4 33 -11 33 -5 0 -12 -5
-16 -11z"/>
<path d="M1152 1798 c-15 -15 -16 -50 -2 -64 13 -13 -25 -145 -45 -157 -24
-13 -18 -37 9 -37 25 0 44 29 26 40 -18 11 32 129 61 143 27 14 37 51 19 73
-15 17 -52 18 -68 2z"/>
<path d="M10236 1778 c3 -4 12 -8 20 -8 8 0 14 -4 14 -10 0 -13 37 -13 45 -1
3 5 0 13 -6 17 -17 10 -79 12 -73 2z"/>
<path d="M10463 1755 c1 -13 7 -28 12 -32 4 -4 5 -2 1 5 -4 7 -1 12 9 12 10 0
23 -16 33 -39 11 -26 28 -45 49 -55 17 -8 42 -29 54 -45 17 -23 26 -28 35 -20
7 6 28 9 46 7 24 -2 33 1 33 12 0 8 -7 15 -15 15 -8 0 -21 4 -28 9 -19 11 -30
-3 -12 -15 11 -8 7 -9 -14 -4 -30 6 -127 96 -161 148 -22 34 -47 36 -42 2z"/>
<path d="M10647 1744 c-4 -4 -7 -15 -7 -25 0 -11 -10 -21 -25 -25 -14 -3 -25
-10 -25 -15 0 -14 28 -11 33 4 3 9 9 9 27 -1 20 -12 25 -11 44 7 16 17 18 25
10 39 -12 18 -45 28 -57 16z"/>
<path d="M10730 1730 c0 -15 5 -20 18 -18 9 2 17 10 17 18 0 8 -8 16 -17 18
-13 2 -18 -3 -18 -18z"/>
<path d="M4521 1714 c-17 -21 -18 -29 -8 -45 16 -26 42 -33 69 -18 12 7 77 14
144 16 102 4 127 2 147 -12 42 -27 90 12 67 56 -12 22 -59 26 -79 7 -19 -19
-230 -14 -270 6 -40 21 -46 20 -70 -10z"/>
<path d="M7730 1711 c-11 -22 -39 -28 -56 -11 -13 13 -44 2 -44 -14 0 -14
-102 -41 -138 -37 -27 3 -40 -25 -20 -45 16 -16 48 -9 48 11 0 17 84 37 125
29 27 -5 35 -2 45 15 9 17 19 21 53 19 39 -3 42 -1 42 22 0 33 -39 40 -55 11z"/>
<path d="M10235 1719 c-4 -6 -5 -12 -2 -15 2 -3 7 2 10 11 7 17 1 20 -8 4z"/>
<path d="M8824 1709 c-10 -17 13 -36 27 -22 12 12 4 33 -11 33 -5 0 -12 -5
-16 -11z"/>
<path d="M5552 1688 c-25 -25 -7 -68 29 -68 29 0 44 27 31 55 -12 27 -40 33
-60 13z"/>
<path d="M11592 1688 c-20 -20 -14 -56 10 -64 16 -5 27 -1 40 16 17 21 17 24
2 41 -20 22 -35 24 -52 7z"/>
<path d="M4285 1680 c-3 -5 3 -10 15 -10 12 0 18 5 15 10 -3 6 -10 10 -15 10
-5 0 -12 -4 -15 -10z"/>
<path d="M520 1645 c0 -10 144 -73 180 -79 27 -4 16 4 -45 33 -78 38 -135 57
-135 46z"/>
<path d="M6976 1634 c-19 -18 -19 -20 -6 -45 17 -31 70 -18 70 17 0 14 -27 44
-40 44 -5 0 -16 -7 -24 -16z m42 -32 c2 -7 -2 -10 -12 -6 -9 3 -16 11 -16 16
0 13 23 5 28 -10z"/>
<path d="M10420 1631 c-7 -15 -6 -23 6 -35 21 -21 31 -20 44 5 9 15 8 24 -1
35 -16 20 -36 18 -49 -5z"/>
<path d="M6580 1625 c-20 -24 3 -65 34 -65 31 0 47 27 35 58 -10 26 -50 30
-69 7z m44 -21 c9 -3 14 -10 11 -15 -7 -10 -35 0 -35 12 0 11 3 11 24 3z"/>
<path d="M7346 1618 c-11 -16 -13 -25 -4 -35 15 -18 55 -16 62 3 8 21 8 20
-10 38 -21 21 -30 20 -48 -6z m39 -18 c3 -5 -1 -10 -9 -10 -9 0 -16 5 -16 10
0 6 4 10 9 10 6 0 13 -4 16 -10z"/>
<path d="M8610 1611 c-7 -15 -6 -23 6 -35 8 -9 19 -16 23 -16 17 0 32 30 26
50 -8 25 -41 26 -55 1z"/>
<path d="M3305 1610 c-8 -13 25 -13 45 0 12 8 9 10 -12 10 -15 0 -30 -4 -33
-10z"/>
<path d="M6165 1590 c-7 -22 9 -50 28 -50 6 0 19 7 28 16 14 13 16 21 8 35
-13 26 -56 25 -64 -1z"/>
<path d="M9352 1598 c-18 -18 -15 -36 9 -48 26 -14 51 4 47 34 -3 24 -37 33
-56 14z"/>
<path d="M10021 1574 c0 -11 3 -14 6 -6 3 7 2 16 -1 19 -3 4 -6 -2 -5 -13z"/>
<path d="M2485 1555 c-16 -15 -25 -36 -25 -54 0 -28 22 -61 41 -61 5 0 12 -12
15 -27 6 -23 8 -24 19 -10 10 14 15 10 35 -33 13 -28 25 -48 27 -47 2 2 -2 29
-8 59 l-11 56 37 37 c22 23 56 43 83 51 l47 14 -51 -4 c-40 -4 -62 1 -100 19
-62 31 -79 31 -109 0z"/>
<path d="M6942 1561 c-21 -13 -10 -46 16 -49 27 -4 40 22 22 43 -14 17 -20 18
-38 6z"/>
<path d="M7080 1560 c-13 -8 -12 -10 3 -10 9 0 17 5 17 10 0 12 -1 12 -20 0z"/>
<path d="M6504 1536 c-10 -26 4 -48 28 -44 17 2 23 10 23 28 0 18 -6 26 -23
28 -13 2 -25 -3 -28 -12z"/>
<path d="M7008 1543 c7 -3 16 -2 19 1 4 3 -2 6 -13 5 -11 0 -14 -3 -6 -6z"/>
<path d="M8182 1521 c-23 -14 -10 -46 19 -49 30 -4 46 22 28 44 -13 16 -28 17
-47 5z"/>
<path d="M10016 1514 c-9 -23 -8 -24 14 -24 11 0 20 6 20 14 0 20 -27 28 -34
10z"/>
<path d="M1070 1490 c0 -11 5 -18 10 -15 6 3 10 1 10 -4 0 -6 7 -11 15 -11 8
0 15 9 15 20 0 11 -4 20 -9 20 -5 0 -16 3 -25 6 -12 4 -16 0 -16 -16z"/>
<path d="M8946 1484 c-27 -26 -12 -58 25 -52 39 5 36 67 -3 68 -4 0 -14 -7
-22 -16z"/>
<path d="M8505 1480 c-4 -6 -3 -16 3 -22 6 -6 12 -6 17 2 4 6 3 16 -3 22 -6 6
-12 6 -17 -2z"/>
<path d="M3120 1440 c-8 -5 -12 -12 -8 -15 9 -9 48 4 48 16 0 12 -21 11 -40
-1z"/>
<path d="M10142 1418 c-17 -17 -15 -36 7 -48 30 -15 53 -2 49 29 -3 29 -35 40
-56 19z"/>
<path d="M1030 1390 c0 -5 5 -10 10 -10 6 0 10 5 10 10 0 6 -4 10 -10 10 -5 0
-10 -4 -10 -10z"/>
<path d="M5027 1382 c-21 -23 -21 -41 -1 -70 19 -27 64 -29 87 -4 19 21 21 45
7 73 -14 25 -71 26 -93 1z"/>
<path d="M1066 1382 c-3 -6 -1 -14 5 -17 15 -10 25 3 12 16 -7 7 -13 7 -17 1z"/>
<path d="M8710 1365 c0 -8 5 -15 10 -15 6 0 10 7 10 15 0 8 -4 15 -10 15 -5 0
-10 -7 -10 -15z"/>
<path d="M6615 1341 c-9 -30 5 -51 34 -51 24 1 25 1 6 12 -26 15 -34 28 -28
45 3 7 3 13 0 13 -3 0 -8 -8 -12 -19z"/>
<path d="M6670 1350 c0 -5 5 -10 11 -10 5 0 7 5 4 10 -3 6 -8 10 -11 10 -2 0
-4 -4 -4 -10z"/>
<path d="M8362 1348 c-30 -30 3 -77 40 -57 30 16 16 69 -17 69 -6 0 -16 -5
-23 -12z m33 -28 c3 -5 1 -10 -4 -10 -6 0 -11 5 -11 10 0 6 2 10 4 10 3 0 8
-4 11 -10z"/>
<path d="M7070 1335 c0 -8 7 -15 16 -15 14 0 14 3 4 15 -7 8 -14 15 -16 15 -2
0 -4 -7 -4 -15z"/>
<path d="M7505 1340 c3 -5 11 -10 16 -10 6 0 7 5 4 10 -3 6 -11 10 -16 10 -6
0 -7 -4 -4 -10z"/>
<path d="M8839 1334 c-9 -11 -10 -20 -2 -32 25 -41 86 -14 63 27 -13 25 -42
27 -61 5z"/>
<path d="M10847 1338 c-2 -7 -1 -21 2 -31 6 -17 8 -17 20 -3 14 16 9 46 -8 46
-5 0 -11 -6 -14 -12z"/>
<path d="M6165 1300 c-4 -6 7 -13 24 -16 17 -4 28 -10 26 -15 -3 -4 -1 -10 5
-14 14 -9 13 28 -2 43 -15 15 -45 16 -53 2z"/>
<path d="M7472 1298 c3 -7 15 -14 29 -16 23 -2 23 -2 5 13 -24 18 -39 20 -34
3z"/>
<path d="M7772 1298 c5 -15 28 -23 28 -10 0 5 -7 13 -16 16 -10 4 -14 1 -12
-6z"/>
<path d="M10880 1296 c0 -8 4 -17 9 -20 12 -8 43 -105 36 -116 -8 -13 15 -24
27 -12 8 8 7 16 -3 28 -17 21 -39 82 -39 112 0 13 -6 22 -15 22 -8 0 -15 -6
-15 -14z"/>
<path d="M7030 1292 c0 -5 7 -13 16 -16 10 -4 14 -1 12 6 -5 15 -28 23 -28 10z"/>
<path d="M5806 1268 c-9 -12 -16 -28 -16 -35 0 -20 30 -43 56 -43 31 0 31 16
0 24 -28 7 -43 46 -17 46 9 0 27 -7 39 -16 20 -14 22 -14 22 3 0 45 -58 59
-84 21z"/>
<path d="M7786 1262 c-3 -6 -16 -8 -28 -4 -14 3 -19 2 -14 -6 9 -15 43 -16 51
-1 4 6 5 13 2 15 -3 3 -8 1 -11 -4z"/>
<path d="M6155 1230 c3 -5 15 -10 26 -10 10 0 19 5 19 10 0 6 -12 10 -26 10
-14 0 -23 -4 -19 -10z"/>
<path d="M9374 1216 c-15 -12 -17 -19 -8 -32 18 -30 40 -39 58 -25 22 18 20
48 -3 61 -25 13 -23 13 -47 -4z"/>
<path d="M10185 1210 c-10 -17 12 -37 25 -24 8 8 6 15 -4 23 -10 9 -16 9 -21
1z"/>
<path d="M1961 1201 c-11 -7 -9 -10 7 -15 19 -6 62 7 62 19 0 9 -54 5 -69 -4z"/>
<path d="M9569 1194 c-17 -21 0 -49 32 -49 27 0 37 28 19 50 -16 19 -34 19
-51 -1z"/>
<path d="M9033 1185 c-15 -11 -15 -17 -5 -39 13 -29 43 -34 62 -11 28 34 -20
77 -57 50z"/>
<path d="M845 1170 c3 -5 8 -10 11 -10 2 0 4 5 4 10 0 6 -5 10 -11 10 -5 0 -7
-4 -4 -10z"/>
<path d="M8880 1165 c0 -8 5 -15 10 -15 6 0 10 7 10 15 0 8 -4 15 -10 15 -5 0
-10 -7 -10 -15z"/>
<path d="M8650 1160 c0 -5 7 -10 15 -10 8 0 15 5 15 10 0 6 -7 10 -15 10 -8 0
-15 -4 -15 -10z"/>
<path d="M10820 1155 c0 -8 2 -15 4 -15 2 0 6 7 10 15 3 8 1 15 -4 15 -6 0
-10 -7 -10 -15z"/>
<path d="M10703 1110 c-3 -10 -17 -23 -32 -28 -24 -8 -23 -9 21 -16 29 -4 47
-12 45 -19 -1 -7 7 -12 18 -12 17 0 19 6 17 35 -2 19 -8 41 -14 48 -16 19 -49
14 -55 -8z"/>
<path d="M685 1111 c-20 -4 -25 -9 -15 -12 21 -9 81 1 74 12 -6 10 -14 10 -59
0z"/>
<path d="M7780 1110 c0 -5 7 -10 16 -10 8 0 12 5 9 10 -3 6 -10 10 -16 10 -5
0 -9 -4 -9 -10z"/>
<path d="M835 1090 c-16 -18 -17 -24 -7 -41 10 -15 9 -26 -3 -55 -27 -65 -11
-73 19 -9 17 36 65 74 53 41 -4 -9 -2 -16 2 -16 5 0 11 7 15 15 3 8 1 15 -4
15 -5 0 -10 10 -12 21 -2 12 -12 28 -24 35 -18 13 -23 12 -39 -6z"/>
<path d="M2317 1104 c-14 -14 -7 -35 11 -32 9 2 17 10 17 17 0 16 -18 25 -28
15z"/>
<path d="M10791 1081 c-9 -15 -7 -18 12 -17 12 1 23 9 25 19 5 23 -24 22 -37
-2z"/>
<path d="M790 1078 c0 -7 5 -20 10 -28 8 -12 10 -9 10 13 0 15 -4 27 -10 27
-5 0 -10 -6 -10 -12z"/>
<path d="M2724 1077 c-8 -21 2 -35 16 -21 5 5 6 15 0 24 -8 12 -10 12 -16 -3z"/>
<path d="M7800 1080 c-8 -5 -11 -12 -7 -16 4 -4 13 -2 19 4 15 15 7 24 -12 12z"/>
<path d="M10466 1081 c-3 -5 0 -14 8 -20 10 -8 16 -8 25 2 6 8 8 17 4 20 -9
10 -31 9 -37 -2z"/>
<path d="M2583 1037 c-28 -31 -30 -36 -18 -63 25 -61 90 -80 131 -39 39 39 29
96 -23 123 -36 19 -58 14 -90 -21z"/>
<path d="M1706 1051 c-7 -11 22 -23 36 -15 6 4 5 10 -3 15 -18 11 -26 11 -33
0z"/>
<path d="M940 1008 c0 -19 2 -20 10 -8 13 19 13 30 0 30 -5 0 -10 -10 -10 -22z"/>
<path d="M2746 1022 c-3 -6 -1 -14 5 -17 15 -10 25 3 12 16 -7 7 -13 7 -17 1z"/>
<path d="M8649 1011 c-21 -16 -22 -22 -11 -45 6 -14 16 -26 22 -26 13 0 13 17
0 25 -17 10 1 34 28 37 27 3 27 3 5 15 -18 11 -25 10 -44 -6z"/>
<path d="M10374 1022 c-6 -4 -16 -17 -23 -30 -14 -26 -5 -50 12 -33 18 18 24
13 19 -19 -6 -39 21 -51 50 -23 16 17 18 24 9 41 -6 12 -17 19 -25 16 -10 -4
-13 0 -10 13 6 22 -16 45 -32 35z"/>
<path d="M10585 1023 c-86 -20 -95 -24 -83 -37 11 -12 14 -12 21 0 4 8 18 14
30 14 12 1 33 7 47 15 25 14 21 16 -15 8z"/>
<path d="M10777 1024 c-4 -4 -7 -14 -7 -23 0 -11 3 -12 11 -4 6 6 10 16 7 23
-2 6 -7 8 -11 4z"/>
<path d="M8888 1000 c-18 -20 -14 -30 13 -30 20 0 33 -27 16 -33 -7 -2 -9 -8
-5 -12 10 -11 28 4 28 24 0 19 -22 71 -30 70 -3 0 -12 -9 -22 -19z"/>
<path d="M1050 982 c0 -9 38 -52 46 -52 2 0 -2 14 -11 30 -14 28 -35 41 -35
22z"/>
<path d="M2235 955 c-14 -13 -25 -29 -25 -35 0 -12 20 -13 36 -2 11 7 34 45
34 56 0 14 -23 4 -45 -19z"/>
<path d="M10806 964 c-4 -9 -4 -19 -1 -22 2 -3 7 3 11 12 4 9 4 19 1 22 -2 3
-7 -3 -11 -12z"/>
<path d="M2770 950 c6 -11 17 -20 25 -20 19 0 19 5 -1 24 -22 23 -37 20 -24
-4z"/>
<path d="M8860 960 c0 -5 5 -10 11 -10 5 0 7 5 4 10 -3 6 -8 10 -11 10 -2 0
-4 -4 -4 -10z"/>
<path d="M9042 959 c2 -6 8 -10 13 -10 5 0 11 4 13 10 2 6 -4 11 -13 11 -9 0
-15 -5 -13 -11z"/>
<path d="M8382 951 c2 -7 7 -12 11 -12 12 1 9 15 -3 20 -7 2 -11 -2 -8 -8z"/>
<path d="M847 943 c-4 -3 -7 -11 -7 -17 0 -6 5 -5 12 2 6 6 9 14 7 17 -3 3 -9
2 -12 -2z"/>
<path d="M1930 932 c0 -14 75 -44 96 -40 15 3 9 9 -23 26 -44 23 -73 28 -73
14z"/>
<path d="M8870 930 c0 -5 7 -10 16 -10 8 0 12 5 9 10 -3 6 -10 10 -16 10 -5 0
-9 -4 -9 -10z"/>
<path d="M1322 923 c-22 -9 -44 -63 -37 -93 3 -15 19 -39 36 -54 23 -21 29
-34 29 -66 0 -22 5 -40 10 -40 6 0 10 10 10 23 0 37 12 67 26 67 7 0 25 16 40
35 21 28 33 35 61 35 20 0 32 4 28 10 -3 6 -20 10 -36 10 -20 0 -29 4 -27 12
7 21 -61 68 -96 67 -17 0 -37 -3 -44 -6z"/>
<path d="M4952 904 c-39 -27 -25 -94 24 -108 29 -9 74 28 74 60 0 28 -32 64
-58 64 -10 0 -28 -7 -40 -16z m52 -30 c12 -5 13 -10 5 -25 -13 -24 -31 -24
-46 0 -10 15 -10 21 0 24 17 8 24 8 41 1z"/>
<path d="M7110 890 c0 -5 5 -10 11 -10 5 0 7 5 4 10 -3 6 -8 10 -11 10 -2 0
-4 -4 -4 -10z"/>
<path d="M9138 883 c6 -2 10 -9 6 -14 -3 -5 0 -9 5 -9 6 0 11 7 11 15 0 8 -8
15 -17 14 -11 0 -13 -3 -5 -6z"/>
<path d="M2132 858 c-21 -21 -14 -66 12 -83 28 -19 58 -9 76 26 25 45 -51 94
-88 57z"/>
<path d="M10857 854 c-15 -16 -7 -53 14 -59 30 -10 58 19 43 43 -12 18 -45 28
-57 16z"/>
<path d="M7100 829 c0 -5 5 -7 10 -4 6 3 10 8 10 11 0 2 -4 4 -10 4 -5 0 -10
-5 -10 -11z"/>
<path d="M9762 828 c-18 -18 -14 -46 7 -58 38 -20 71 13 51 51 -12 21 -40 25
-58 7z"/>
<path d="M6600 810 c0 -5 5 -10 11 -10 5 0 7 5 4 10 -3 6 -8 10 -11 10 -2 0
-4 -4 -4 -10z"/>
<path d="M7375 800 c3 -5 15 -10 26 -10 11 0 17 5 14 10 -3 6 -15 10 -26 10
-11 0 -17 -4 -14 -10z"/>
<path d="M9513 783 c-18 -7 -16 -48 2 -63 18 -15 51 -5 58 19 9 38 -21 60 -60
44z"/>
<path d="M5855 770 c-3 -5 1 -10 10 -10 9 0 13 5 10 10 -3 6 -8 10 -10 10 -2
0 -7 -4 -10 -10z"/>
<path d="M6605 760 c3 -5 8 -10 11 -10 2 0 4 5 4 10 0 6 -5 10 -11 10 -5 0 -7
-4 -4 -10z"/>
<path d="M6545 750 c3 -5 8 -10 11 -10 2 0 4 5 4 10 0 6 -5 10 -11 10 -5 0 -7
-4 -4 -10z"/>
<path d="M5788 708 c12 -12 25 -18 29 -14 4 4 -1 14 -11 22 -31 22 -43 17 -18
-8z"/>
<path d="M2162 700 c0 -14 2 -19 5 -12 2 6 2 18 0 25 -3 6 -5 1 -5 -13z"/>
<path d="M2218 696 c-24 -18 -23 -26 5 -26 25 1 60 24 50 33 -10 11 -37 7 -55
-7z"/>
<path d="M2880 708 c0 -4 8 -23 17 -43 16 -33 16 -37 0 -70 -40 -84 61 -154
127 -89 14 15 26 37 26 49 0 33 -36 73 -73 80 -19 4 -45 21 -64 43 -18 20 -33
34 -33 30z"/>
<path d="M10889 694 c-9 -11 -9 -18 -1 -26 14 -14 42 -3 42 16 0 20 -27 27
-41 10z"/>
<path d="M10240 685 c0 -8 7 -15 15 -15 8 0 15 7 15 15 0 8 -7 15 -15 15 -8 0
-15 -7 -15 -15z"/>
<path d="M10611 678 c-9 -25 -4 -48 9 -48 11 0 16 8 24 43 5 21 3 27 -9 27 -9
0 -19 -10 -24 -22z"/>
<path d="M8251 674 c0 -11 3 -14 6 -6 3 7 2 16 -1 19 -3 4 -6 -2 -5 -13z"/>
<path d="M9372 661 c4 -13 18 -16 19 -4 0 4 -5 9 -11 12 -7 2 -11 -2 -8 -8z"/>
<path d="M2155 637 c-4 -10 -5 -21 -1 -24 10 -10 18 4 13 24 -4 17 -4 17 -12
0z"/>
<path d="M9490 625 c0 -9 5 -15 11 -13 6 2 11 8 11 13 0 5 -5 11 -11 13 -6 2
-11 -4 -11 -13z"/>
<path d="M4150 590 c-29 -29 -26 -74 7 -100 32 -25 69 -20 96 12 37 44 6 108
-53 108 -17 0 -39 -9 -50 -20z"/>
<path d="M9090 602 c0 -6 4 -13 10 -17 5 -3 7 -12 4 -19 -3 -8 -1 -17 5 -21
17 -10 13 41 -4 55 -9 8 -15 9 -15 2z"/>
<path d="M1311 590 c0 -8 6 -24 14 -34 11 -15 15 -16 15 -5 0 8 -7 24 -15 35
-11 14 -14 15 -14 4z"/>
<path d="M10617 583 c-4 -3 -7 -12 -7 -20 0 -15 26 -18 34 -4 7 11 -18 33 -27
24z"/>
<path d="M9040 570 c0 -5 5 -10 10 -10 6 0 10 5 10 10 0 6 -4 10 -10 10 -5 0
-10 -4 -10 -10z"/>
<path d="M9534 569 c-10 -17 13 -36 27 -22 12 12 4 33 -11 33 -5 0 -12 -5 -16
-11z"/>
<path d="M9965 540 c-8 -13 4 -32 16 -25 12 8 12 35 0 35 -6 0 -13 -4 -16 -10z"/>
<path d="M10265 496 c-33 -28 -32 -31 11 -40 35 -8 58 11 52 41 -5 27 -31 27
-63 -1z"/>
<path d="M1380 498 c0 -9 5 -20 11 -23 17 -11 18 -2 3 19 -12 17 -14 17 -14 4z"/>
<path d="M10532 484 c4 -21 22 -23 26 -1 2 10 -3 17 -13 17 -10 0 -15 -6 -13
-16z"/>
<path d="M10963 484 c-8 -20 8 -36 26 -25 15 10 8 41 -9 41 -6 0 -13 -7 -17
-16z"/>
<path d="M9340 460 c0 -5 5 -10 11 -10 5 0 7 5 4 10 -3 6 -8 10 -11 10 -2 0
-4 -4 -4 -10z"/>
<path d="M8650 436 c0 -2 7 -7 16 -10 8 -3 12 -2 9 4 -6 10 -25 14 -25 6z"/>
<path d="M10204 399 c-3 -6 -1 -16 5 -22 9 -9 14 -8 21 3 9 15 4 30 -10 30 -5
0 -12 -5 -16 -11z"/>
<path d="M9994 376 c-3 -8 -4 -23 -2 -33 5 -25 61 -25 66 0 7 37 -51 67 -64
33z"/>
<path d="M10485 360 c-4 -6 -3 -16 3 -22 6 -6 12 -6 17 2 4 6 3 16 -3 22 -6 6
-12 6 -17 -2z"/>
<path d="M10640 350 c0 -15 5 -20 18 -18 9 2 17 10 17 18 0 8 -8 16 -17 18
-13 2 -18 -3 -18 -18z"/>
<path d="M10722 328 c6 -18 28 -21 28 -4 0 9 -7 16 -16 16 -9 0 -14 -5 -12
-12z"/>
<path d="M2141 318 c-1 -9 -12 -28 -26 -42 -30 -30 -32 -52 -6 -66 54 -29 97
10 64 58 -10 15 -21 36 -25 47 -5 16 -6 17 -7 3z"/>
<path d="M9484 319 c-10 -17 13 -36 27 -22 12 12 4 33 -11 33 -5 0 -12 -5 -16
-11z"/>
<path d="M8805 310 c3 -5 8 -10 11 -10 2 0 4 5 4 10 0 6 -5 10 -11 10 -5 0 -7
-4 -4 -10z"/>
<path d="M9385 220 c4 -6 11 -8 16 -5 14 9 11 15 -7 15 -8 0 -12 -5 -9 -10z"/>
<path d="M10487 195 c-5 -10 0 -15 14 -15 12 0 19 5 17 12 -6 18 -25 20 -31 3z"/>
<path d="M10700 161 c0 -5 7 -14 15 -21 13 -10 15 -9 15 9 0 12 -6 21 -15 21
-8 0 -15 -4 -15 -9z"/>
<path d="M10305 131 c-7 -12 12 -24 25 -16 11 7 4 25 -10 25 -5 0 -11 -4 -15
-9z"/>
<path d="M10760 106 c0 -9 7 -16 16 -16 9 0 14 5 12 12 -6 18 -28 21 -28 4z"/>
<path d="M4560 93 c0 -17 19 -35 29 -29 18 12 12 36 -9 36 -11 0 -20 -3 -20
-7z"/>
<path d="M4611 61 c-15 -28 -14 -31 14 -31 28 0 33 21 11 39 -12 10 -17 8 -25
-8z"/>
<path d="M10730 65 c0 -8 7 -15 15 -15 8 0 15 7 15 15 0 8 -7 15 -15 15 -8 0
-15 -7 -15 -15z"/>
<path d="M9168 53 c7 -3 16 -2 19 1 4 3 -2 6 -13 5 -11 0 -14 -3 -6 -6z"/>
<path d="M4500 20 c0 -5 5 -10 10 -10 6 0 10 5 10 10 0 6 -4 10 -10 10 -5 0
-10 -4 -10 -10z"/>
<path d="M9370 10 c0 -5 5 -10 11 -10 5 0 7 5 4 10 -3 6 -8 10 -11 10 -2 0 -4
-4 -4 -10z"/>
</g>
</svg>
