<?xml version="1.0" encoding="utf-8"?>
<!-- Generator: Adobe Illustrator 25.0.0, SVG Export Plug-In . SVG Version: 6.00 Build 0)  -->
<svg version="1.1" xmlns="http://www.w3.org/2000/svg" xmlns:xlink="http://www.w3.org/1999/xlink" x="0px" y="0px"
	 viewBox="0 0 500 500" style="enable-background:new 0 0 500 500;" xml:space="preserve">
<style type="text/css">
	.st0{fill:url(#SVGID_1_);}
	.st1{fill:url(#SVGID_2_);}
	.st2{fill:#606060;}
	.st3{font-family:'NunitoSans-Black';}
	.st4{font-size:11px;}
	.st5{letter-spacing:5;}
	.st6{fill:none;stroke:#EAEAEA;stroke-width:6;stroke-miterlimit:10;}
	.st7{fill:none;stroke:#EAEAEA;stroke-width:4;stroke-miterlimit:10;}
	.st8{opacity:0.19;fill:url(#SVGID_3_);}
</style>
<g id="BACKGROUND">
</g>
<g id="OBJECTS">
		<radialGradient id="SVGID_1_" cx="234.7984" cy="75.1172" r="100.6037" gradientTransform="matrix(0.8463 0.2482 -0.2482 0.8463 48.537 -1.0343)" gradientUnits="userSpaceOnUse">
		<stop  offset="0.0188" style="stop-color:#459CDA"/>
		<stop  offset="0.4967" style="stop-color:#3882C4"/>
		<stop  offset="0.9734" style="stop-color:#33528E"/>
	</radialGradient>
	<circle class="st0" cx="246.14" cy="163.98" r="51.38"/>
	
		<radialGradient id="SVGID_2_" cx="300.3307" cy="128.0083" r="116.6032" gradientTransform="matrix(0.8819 0 0 0.8819 10.6227 16.2078)" gradientUnits="userSpaceOnUse">
		<stop  offset="0.0188" style="stop-color:#459CDA"/>
		<stop  offset="0.4967" style="stop-color:#3882C4"/>
		<stop  offset="0.9734" style="stop-color:#8BD5EB"/>
	</radialGradient>
	<circle class="st1" cx="246.14" cy="163.98" r="46.81"/>
	
</g>
	<g>
	</g>
    	<g>
		<path class="st6" d="M282.78,164.98c0,20.09-16.29,36.38-36.38,36.38c-20.09,0-36.38-16.29-36.38-36.38
			c0-20.09,16.29-36.38,36.38-36.38c4.38,0,8.57,0.77,12.46,2.19"/>
		<path class="st6" d="M234.35,142.28c3.59-1.91,7.69-2.99,12.05-2.99c14.19,0,25.7,11.51,25.7,25.7c0,14.19-11.51,25.7-25.7,25.7
			c-9.48,0-17.75-5.13-22.21-12.76"/>
		<path class="st6" d="M246.4,179.06c-7.77,0-14.07-6.3-14.07-14.07c0-7.77,6.3-14.07,14.07-14.07c7.77,0,14.07,6.3,14.07,14.07
			h-17.8"/>
		<line class="st6" x1="260.47" y1="164.4" x2="260.47" y2="163.06"/>
		<path class="st7" d="M266.47,132.45c-0.02,2.11-1.74,3.8-3.85,3.79c-2.11-0.02-3.8-1.74-3.79-3.85s1.74-3.8,3.85-3.79
			C264.79,128.62,266.49,130.34,266.47,132.45z"/>
		<path class="st7" d="M254.39,179.09c-0.02,2.11-1.74,3.8-3.85,3.79c-2.11-0.02-3.8-1.74-3.79-3.85c0.02-2.11,1.74-3.8,3.85-3.79
			C252.71,175.26,254.41,176.98,254.39,179.09z"/>
		<path class="st7" d="M225.98,175.2c-0.01,1.95-1.61,3.53-3.56,3.51s-3.53-1.61-3.51-3.56c0.01-1.95,1.61-3.53,3.56-3.51
			C224.42,171.65,225.99,173.24,225.98,175.2z"/>
		<path class="st7" d="M236.86,143.47c-0.02,2.11-1.74,3.8-3.85,3.79c-2.11-0.02-3.8-1.74-3.79-3.85c0.02-2.11,1.74-3.8,3.85-3.79
			C235.18,139.64,236.88,141.36,236.86,143.47z"/>
		<line class="st7" x1="274.37" y1="165.8" x2="292.61" y2="165.94"/>
		<line class="st7" x1="274.37" y1="163.99" x2="292.61" y2="164.13"/>
	</g>
</svg>
