<?xml version="1.0" encoding="utf-8"?>
<!-- Generator: Adobe Illustrator 25.0.0, SVG Export Plug-In . SVG Version: 6.00 Build 0)  -->
<svg version="1.1" xmlns="http://www.w3.org/2000/svg" xmlns:xlink="http://www.w3.org/1999/xlink" x="0px" y="0px"
	 viewBox="0 0 500 500" style="enable-background:new 0 0 500 500;" xml:space="preserve">
<style type="text/css">
	.st0{fill:url(#SVGID_1_);}
	.st1{fill:url(#SVGID_2_);}
	.st2{fill:#606060;}
	.st3{font-family:'NunitoSans-Black';}
	.st4{font-size:11px;}
	.st5{letter-spacing:5;}
	.st6{fill:none;stroke:#EAEAEA;stroke-width:6;stroke-miterlimit:10;}
	.st7{fill:none;stroke:#EAEAEA;stroke-width:4;stroke-miterlimit:10;}
	.st8{opacity:0.19;fill:url(#SVGID_3_);}
</style>
<g id="BACKGROUND">
</g>
<g id="OBJECTS">
	
	
	<circle class="st8" cx="245.21" cy="163.06" r="46.81"/>
	
	<g>
		<path class="st6" d="M284.79,321.6c0,20.09-16.29,36.38-36.38,36.38c-20.09,0-36.38-16.29-36.38-36.38
			c0-20.09,16.29-36.38,36.38-36.38c4.38,0,8.57,0.77,12.46,2.19"/>
		<path class="st6" d="M236.36,298.89c3.59-1.91,7.69-2.99,12.05-2.99c14.19,0,25.7,11.51,25.7,25.7c0,14.19-11.51,25.7-25.7,25.7
			c-9.48,0-17.75-5.13-22.21-12.76"/>
		<path class="st6" d="M248.41,335.67c-7.77,0-14.07-6.3-14.07-14.07c0-7.77,6.3-14.07,14.07-14.07c7.77,0,14.07,6.3,14.07,14.07
			h-17.8"/>
		<line class="st6" x1="262.48" y1="321.01" x2="262.48" y2="319.67"/>
		<path class="st7" d="M268.48,289.06c-0.02,2.11-1.74,3.8-3.85,3.79c-2.11-0.02-3.8-1.74-3.79-3.85c0.02-2.11,1.74-3.8,3.85-3.79
			C266.8,285.23,268.49,286.95,268.48,289.06z"/>
		<path class="st7" d="M256.4,335.7c-0.02,2.11-1.74,3.8-3.85,3.79c-2.11-0.02-3.8-1.74-3.79-3.85c0.02-2.11,1.74-3.8,3.85-3.79
			C254.72,331.87,256.41,333.59,256.4,335.7z"/>
		<path class="st7" d="M227.98,331.81c-0.01,1.95-1.61,3.53-3.56,3.51s-3.53-1.61-3.51-3.56c0.01-1.95,1.61-3.53,3.56-3.51
			C226.42,328.26,228,329.86,227.98,331.81z"/>
		<path class="st7" d="M238.87,300.08c-0.02,2.11-1.74,3.8-3.85,3.79c-2.11-0.02-3.8-1.74-3.79-3.85c0.02-2.11,1.74-3.8,3.85-3.79
			C237.19,296.25,238.88,297.97,238.87,300.08z"/>
		<line class="st7" x1="276.38" y1="322.42" x2="294.61" y2="322.56"/>
		<line class="st7" x1="276.38" y1="320.61" x2="294.61" y2="320.74"/>
	</g>
</g>
</svg>
