<?xml version="1.0" encoding="utf-8"?>
<!-- Generator: Adobe Illustrator 25.0.0, SVG Export Plug-In . SVG Version: 6.00 Build 0)  -->
<svg version="1.1" id="Layer_1" xmlns="http://www.w3.org/2000/svg" xmlns:xlink="http://www.w3.org/1999/xlink" x="0px" y="0px"
	 viewBox="0 0 141.73 141.73" style="enable-background:new 0 0 141.73 141.73;" xml:space="preserve">
<style type="text/css">
	.st0{fill:none;stroke:#EAEAEA;stroke-width:6;stroke-miterlimit:10;}
	.st1{fill:none;stroke:#EAEAEA;stroke-width:4;stroke-miterlimit:10;}
</style>
<g>
	<path class="st0" d="M123.32,71.23c0,32.57-26.41,58.98-58.98,58.98S5.36,103.8,5.36,71.23s26.41-58.98,58.98-58.98
		c7.1,0,13.89,1.25,20.2,3.55"/>
	<path class="st0" d="M44.8,34.42c5.82-3.1,12.47-4.85,19.54-4.85c23,0,41.66,18.66,41.66,41.66S87.34,112.9,64.34,112.9
		c-15.37,0-28.78-8.32-36.01-20.69"/>
	<path class="st0" d="M64.34,94.04c-12.6,0-22.81-10.21-22.81-22.81c0-12.6,10.21-22.81,22.81-22.81c12.6,0,22.81,10.21,22.81,22.81
		H58.29"/>
	<line class="st0" x1="87.15" y1="70.28" x2="87.15" y2="68.1"/>
	<path class="st1" d="M96.87,18.48c-0.03,3.42-2.82,6.16-6.24,6.14c-3.42-0.03-6.16-2.82-6.14-6.24c0.03-3.42,2.82-6.16,6.24-6.14
		C94.15,12.27,96.89,15.06,96.87,18.48z"/>
	<path class="st1" d="M77.29,94.09c-0.03,3.42-2.82,6.16-6.24,6.14c-3.42-0.03-6.16-2.82-6.14-6.24c0.03-3.42,2.82-6.16,6.24-6.14
		C74.57,87.88,77.31,90.67,77.29,94.09z"/>
	<path class="st1" d="M31.22,87.79c-0.02,3.16-2.61,5.72-5.77,5.69c-3.16-0.03-5.72-2.61-5.69-5.77c0.02-3.16,2.61-5.72,5.77-5.69
		C28.69,82.03,31.25,84.62,31.22,87.79z"/>
	<path class="st1" d="M48.87,36.34c-0.03,3.42-2.82,6.16-6.24,6.14c-3.42-0.03-6.16-2.82-6.14-6.24c0.03-3.42,2.82-6.16,6.24-6.14
		C46.15,30.14,48.89,32.92,48.87,36.34z"/>
	<line class="st1" x1="109.68" y1="72.56" x2="139.24" y2="72.79"/>
	<line class="st1" x1="109.68" y1="69.63" x2="139.24" y2="69.84"/>
</g>
</svg>
