<?xml version="1.0" encoding="utf-8"?>
<!-- Generator: Adobe Illustrator 25.0.0, SVG Export Plug-In . SVG Version: 6.00 Build 0)  -->
<svg version="1.1" id="Layer_1" xmlns="http://www.w3.org/2000/svg" xmlns:xlink="http://www.w3.org/1999/xlink" x="0px" y="0px"
	 viewBox="0 0 141.73 141.73" style="enable-background:new 0 0 141.73 141.73;" xml:space="preserve">
<style type="text/css">
	.st0{fill:url(#SVGID_1_);}
	.st1{fill:url(#SVGID_2_);}
	.st2{fill:none;stroke:#EAEAEA;stroke-width:6;stroke-miterlimit:10;}
	.st3{fill:none;stroke:#EAEAEA;stroke-width:4;stroke-miterlimit:10;}
	.st4{opacity:0.19;fill:url(#SVGID_3_);enable-background:new    ;}
</style>
<radialGradient id="SVGID_1_" cx="135.0905" cy="167.8326" r="134.7686" gradientTransform="matrix(0.8463 0.2482 0.2482 -0.8463 -108.3136 121.5487)" gradientUnits="userSpaceOnUse">
	<stop  offset="0.0188" style="stop-color:#499CD6"/>
	<stop  offset="0.4967" style="stop-color:#3983C4"/>
	<stop  offset="0.9734" style="stop-color:#33538F"/>
</radialGradient>
<circle class="st0" cx="71.16" cy="70.87" r="68.83"/>
<radialGradient id="SVGID_2_" cx="143.4855" cy="86.2616" r="156.2015" gradientTransform="matrix(0.8819 0 0 -0.8819 -16.0679 100.2128)" gradientUnits="userSpaceOnUse">
	<stop  offset="0.0188" style="stop-color:#499CD6"/>
	<stop  offset="0.4967" style="stop-color:#3983C4"/>
	<stop  offset="0.9734" style="stop-color:#8DD4EA"/>
</radialGradient>
<circle class="st1" cx="71.16" cy="70.87" r="62.71"/>
<g>
	<path class="st2" d="M120.25,72.21c0,26.91-21.82,48.73-48.73,48.73S22.78,99.12,22.78,72.21S44.6,23.47,71.51,23.47
		c5.87,0,11.48,1.03,16.69,2.93"/>
	<path class="st2" d="M55.37,41.8c4.81-2.56,10.3-4.01,16.14-4.01c19.01,0,34.43,15.42,34.43,34.43s-15.42,34.43-34.43,34.43
		c-12.7,0-23.78-6.87-29.75-17.09"/>
	<path class="st2" d="M71.51,91.07c-10.41,0-18.85-8.44-18.85-18.85s8.44-18.85,18.85-18.85s18.85,8.44,18.85,18.85H66.51"/>
	<line class="st2" x1="90.36" y1="71.43" x2="90.36" y2="69.63"/>
	<path class="st3" d="M98.4,28.63c-0.03,2.83-2.33,5.09-5.16,5.08c-2.83-0.03-5.09-2.33-5.08-5.16c0.01-2.83,2.33-5.09,5.16-5.08
		C96.15,23.5,98.42,25.8,98.4,28.63z"/>
	<path class="st3" d="M82.21,91.11c-0.03,2.83-2.33,5.09-5.16,5.08c-2.83-0.03-5.09-2.33-5.08-5.16c0.03-2.83,2.33-5.09,5.16-5.08
		C79.96,85.98,82.24,88.28,82.21,91.11z"/>
	<path class="st3" d="M44.16,85.9c-0.01,2.61-2.16,4.73-4.77,4.7c-2.61-0.03-4.73-2.16-4.7-4.77c0.01-2.61,2.16-4.73,4.77-4.7
		C42.07,81.14,44.17,83.27,44.16,85.9z"/>
	<path class="st3" d="M58.73,43.39c-0.03,2.83-2.33,5.09-5.16,5.08c-2.83-0.03-5.09-2.33-5.08-5.16c0.03-2.83,2.33-5.09,5.16-5.08
		C56.48,38.26,58.76,40.56,58.73,43.39z"/>
	<line class="st3" x1="108.98" y1="73.3" x2="133.41" y2="73.49"/>
	<line class="st3" x1="108.98" y1="70.88" x2="133.41" y2="71.07"/>
</g>
<radialGradient id="SVGID_3_" cx="90.2327" cy="125.5477" r="135.3236" fx="76.2233" fy="163.2326" gradientTransform="matrix(1 0 0 -1 0 142.1102)" gradientUnits="userSpaceOnUse">
	<stop  offset="0.019" style="stop-color:#499CD6;stop-opacity:0"/>
	<stop  offset="0.4967" style="stop-color:#3983C4"/>
	<stop  offset="0.9734" style="stop-color:#8BC647"/>
</radialGradient>
<circle class="st4" cx="69.92" cy="69.63" r="62.71"/>
</svg>
